{"accessors" : [{"bufferView" : 0, "byteOffset" : 0, "componentType" : 5123, "count" : 2160, "type" : "SCALAR", "max" : [1827], "min" : [0]}, {"bufferView" : 1, "byteOffset" : 0, "componentType" : 5126, "count" : 1828, "type" : "VEC3", "max" : [2.524848699569702, 0.42338961362838745, 2.1240904331207275], "min" : [-2.06807279586792, -0.17387033998966217, 0.689086377620697], "name" : "POSITION"}, {"bufferView" : 1, "byteOffset" : 12, "componentType" : 5126, "count" : 1828, "type" : "VEC3", "max" : [0.9999617338180542, 0.9932154417037964, 0.9980491399765015], "min" : [-0.9999141693115234, -0.988446056842804, -0.9960394501686096], "name" : "NORMAL"}, {"bufferView" : 1, "byteOffset" : 24, "componentType" : 5126, "count" : 1828, "type" : "VEC2", "max" : [0.785405695438385, 0.5720268487930298], "min" : [0.25963667035102844, 0.4344213008880615], "name" : "TEXCOORD_0"}, {"bufferView" : 0, "byteOffset" : 4320, "componentType" : 5123, "count" : 24294, "type" : "SCALAR", "max" : [20096], "min" : [0]}, {"bufferView" : 2, "byteOffset" : 0, "componentType" : 5126, "count" : 20097, "type" : "VEC3", "max" : [2.9783284664154053, 0.6317836046218872, 2.9855947494506836], "min" : [-2.9783194065093994, -0.003594130277633667, -2.9710536003112793], "name" : "POSITION"}, {"bufferView" : 2, "byteOffset" : 12, "componentType" : 5126, "count" : 20097, "type" : "VEC3", "max" : [1.0000044107437134, 1.0000044107437134, 1.0000044107437134], "min" : [-1.0000044107437134, -1.0000044107437134, -1.0000044107437134], "name" : "NORMAL"}, {"bufferView" : 2, "byteOffset" : 24, "componentType" : 5126, "count" : 20097, "type" : "VEC2", "max" : [0.6020870804786682, 0.5532589554786682], "min" : [0.4799441695213318, 0.4311160445213318], "name" : "TEXCOORD_0"}, {"bufferView" : 0, "byteOffset" : 52908, "componentType" : 5123, "count" : 9186, "type" : "SCALAR", "max" : [8969], "min" : [0]}, {"bufferView" : 3, "byteOffset" : 0, "componentType" : 5126, "count" : 8970, "type" : "VEC3", "max" : [1.5170040130615234, 4.091817378997803, 1.5044355392456055], "min" : [-1.5282723903656006, -0.2198185920715332, -1.526825189590454], "name" : "POSITION"}, {"bufferView" : 3, "byteOffset" : 12, "componentType" : 5126, "count" : 8970, "type" : "VEC3", "max" : [0.9920855760574341, 1.0000044107437134, 0.9755347967147827], "min" : [-0.9920855760574341, -1.0000044107437134, -0.9685350060462952], "name" : "NORMAL"}, {"bufferView" : 3, "byteOffset" : 24, "componentType" : 5126, "count" : 8970, "type" : "VEC2", "max" : [0.9402285814285278, 0.6986770629882812], "min" : [0.018274694681167603, 0.02319622039794922], "name" : "TEXCOORD_0"}, {"bufferView" : 0, "byteOffset" : 71280, "componentType" : 5123, "count" : 2160, "type" : "SCALAR", "max" : [1827], "min" : [0]}, {"bufferView" : 4, "byteOffset" : 0, "componentType" : 5126, "count" : 1828, "type" : "VEC3", "max" : [2.524848699569702, 0.42338961362838745, 2.1240904331207275], "min" : [-2.06807279586792, -0.17387033998966217, 0.689086377620697], "name" : "POSITION"}, {"bufferView" : 4, "byteOffset" : 12, "componentType" : 5126, "count" : 1828, "type" : "VEC3", "max" : [0.9999617338180542, 0.9932154417037964, 0.9980491399765015], "min" : [-0.9999141693115234, -0.988446056842804, -0.9960394501686096], "name" : "NORMAL"}, {"bufferView" : 4, "byteOffset" : 24, "componentType" : 5126, "count" : 1828, "type" : "VEC2", "max" : [0.785405695438385, 0.5720268487930298], "min" : [0.25963667035102844, 0.4344213008880615], "name" : "TEXCOORD_0"}], "asset" : {"generator" : "Aspose.3D 23.9.0", "version" : "2.0"}, "buffers" : [{"uri" : "data:application/octet-stream;base64,", "byteLength" : 1285220}], "bufferViews" : [{"buffer" : 0, "byteOffset" : 0, "byteLength" : 75600, "target" : 34963}, {"buffer" : 0, "byteOffset" : 75604, "byteLength" : 69120, "byteStride" : 32, "target" : 34962}, {"buffer" : 0, "byteOffset" : 144728, "byteLength" : 777408, "byteStride" : 32, "target" : 34962}, {"buffer" : 0, "byteOffset" : 922140, "byteLength" : 293952, "byteStride" : 32, "target" : 34962}, {"buffer" : 0, "byteOffset" : 1216096, "byteLength" : 69120, "byteStride" : 32, "target" : 34962}], "images" : [{"uri" : "data:image/png;base64,"}, {"uri" : "data:image/png;base64,"}, {"uri" : "data:image/png;base64,"}, {"uri" : "data:image/png;base64,"}], "materials" : [{"name" : "Stick.001", "pbrMetallicRoughness" : {"baseColorFactor" : [1, 1, 1, 1], "baseColorTexture" : {"index" : 0, "texCoord" : 0}, "metallicFactor" : 0, "roughnessFactor" : 0.690034806728363}, "emissiveFactor" : [0, 0, 0], "alphaMode" : "OPAQUE", "doubleSided" : true}, {"name" : "Ground snow", "pbrMetallicRoughness" : {"baseColorFactor" : [1, 1, 1, 1], "baseColorTexture" : {"index" : 1, "texCoord" : 0}, "metallicFactor" : 0, "roughnessFactor" : 0.690034806728363}, "emissiveFactor" : [0, 0, 0], "alphaMode" : "OPAQUE", "doubleSided" : true}, {"name" : "Christmas tree", "pbrMetallicRoughness" : {"baseColorFactor" : [1, 1, 1, 1], "baseColorTexture" : {"index" : 2, "texCoord" : 0}, "metallicFactor" : 0, "roughnessFactor" : 0.690034806728363}, "emissiveFactor" : [0, 0, 0], "alphaMode" : "OPAQUE", "doubleSided" : true}, {"name" : "Stick.002", "pbrMetallicRoughness" : {"baseColorFactor" : [1, 1, 1, 1], "baseColorTexture" : {"index" : 3, "texCoord" : 0}, "metallicFactor" : 0, "roughnessFactor" : 0.690034806728363}, "emissiveFactor" : [0, 0, 0], "alphaMode" : "OPAQUE", "doubleSided" : true}], "meshes" : [{"primitives" : [{"attributes" : {"POSITION" : 1, "NORMAL" : 2, "TEXCOORD_0" : 3}, "indices" : 0, "material" : 0, "mode" : 4}]}, {"primitives" : [{"attributes" : {"POSITION" : 5, "NORMAL" : 6, "TEXCOORD_0" : 7}, "indices" : 4, "material" : 1, "mode" : 4}]}, {"primitives" : [{"attributes" : {"POSITION" : 9, "NORMAL" : 10, "TEXCOORD_0" : 11}, "indices" : 8, "material" : 2, "mode" : 4}]}, {"primitives" : [{"attributes" : {"POSITION" : 13, "NORMAL" : 14, "TEXCOORD_0" : 15}, "indices" : 12, "material" : 3, "mode" : 4}]}], "nodes" : [{"matrix" : [1, 0, 0, 0, 0, 1, 0, 0, 0, 0, 1, 0, -0.1509491503238678, 0.5555484294891357, 0, 1], "mesh" : 0, "name" : "Stick.001"}, {"mesh" : 1, "name" : "Ground.001"}, {"matrix" : [1.7516099214553833, 0, 0, 0, 0, 1.7516099214553833, 0, 0, 0, 0, 1.7516099214553833, 0, 0, 0.7208890318870544, 0, 1], "mesh" : 2, "name" : "Christmas tree IceAliensForge.001"}, {"matrix" : [-0.988644551647667, 0, 0.15027301870112808, 0, 0, 1, 0, 0, -0.15027301870112808, 0, -0.988644551647667, 0, 0.15525460243225098, 0.5555484294891357, 0.45363521575927734, 1], "mesh" : 3, "name" : "Stick.002"}], "samplers" : [{"magFilter" : 9729, "minFilter" : 9987, "wrapS" : 10497, "wrapT" : 10497}, {"magFilter" : 9729, "minFilter" : 9987, "wrapS" : 10497, "wrapT" : 10497}, {"magFilter" : 9729, "minFilter" : 9987, "wrapS" : 10497, "wrapT" : 10497}, {"magFilter" : 9729, "minFilter" : 9987, "wrapS" : 10497, "wrapT" : 10497}], "scene" : 0, "scenes" : [{"nodes" : [0, 1, 2, 3]}], "textures" : [{"sampler" : 0, "source" : 0, "name" : ""}, {"sampler" : 1, "source" : 1, "name" : ""}, {"sampler" : 2, "source" : 2, "name" : ""}, {"sampler" : 3, "source" : 3, "name" : ""}]}